<mxfile host="Electron" modified="2023-11-07T04:49:04.414Z" agent="Mozilla/5.0 (X11; Linux x86_64) AppleWebKit/537.36 (KHTML, like Gecko) draw.io/22.0.3 Chrome/114.0.5735.289 Electron/25.8.4 Safari/537.36" etag="YBe5OSnRxQS06W4un_Q7" version="22.0.3" type="device">
  <diagram name="Page-1" id="jNcVfUFwNesNaKVuXYyC">
    <mxGraphModel dx="1362" dy="843" grid="1" gridSize="10" guides="1" tooltips="1" connect="1" arrows="1" fold="1" page="1" pageScale="1" pageWidth="850" pageHeight="1100" math="0" shadow="0">
      <root>
        <mxCell id="0" />
        <mxCell id="1" parent="0" />
        <mxCell id="jNckEClQxKYpTligdhL6-3" value="" style="rounded=0;whiteSpace=wrap;html=1;fillColor=#4D4D4D;" parent="1" vertex="1">
          <mxGeometry x="380" y="120" width="60" height="180" as="geometry" />
        </mxCell>
        <mxCell id="OzcmG1svSVnzf-XZp5vA-61" value="" style="endArrow=none;html=1;rounded=0;strokeColor=#FF0000;strokeWidth=3;" parent="1" target="jNckEClQxKYpTligdhL6-36" edge="1">
          <mxGeometry width="50" height="50" relative="1" as="geometry">
            <mxPoint x="447" y="158" as="sourcePoint" />
            <mxPoint x="510" y="126" as="targetPoint" />
          </mxGeometry>
        </mxCell>
        <mxCell id="OzcmG1svSVnzf-XZp5vA-62" value="" style="endArrow=none;html=1;rounded=0;strokeColor=#FF0000;strokeWidth=3;" parent="1" edge="1">
          <mxGeometry width="50" height="50" relative="1" as="geometry">
            <mxPoint x="434" y="141" as="sourcePoint" />
            <mxPoint x="469" y="117" as="targetPoint" />
          </mxGeometry>
        </mxCell>
        <mxCell id="OzcmG1svSVnzf-XZp5vA-63" value="" style="endArrow=none;html=1;rounded=0;strokeColor=#FF0000;strokeWidth=3;" parent="1" edge="1">
          <mxGeometry width="50" height="50" relative="1" as="geometry">
            <mxPoint x="426" y="123" as="sourcePoint" />
            <mxPoint x="474" y="113" as="targetPoint" />
          </mxGeometry>
        </mxCell>
        <mxCell id="OzcmG1svSVnzf-XZp5vA-58" value="" style="endArrow=none;html=1;rounded=0;strokeColor=#FF0000;strokeWidth=3;" parent="1" target="jNckEClQxKYpTligdhL6-34" edge="1">
          <mxGeometry width="50" height="50" relative="1" as="geometry">
            <mxPoint x="432" y="85" as="sourcePoint" />
            <mxPoint x="335" y="33" as="targetPoint" />
          </mxGeometry>
        </mxCell>
        <mxCell id="OzcmG1svSVnzf-XZp5vA-59" value="" style="endArrow=none;html=1;rounded=0;strokeColor=#FF0000;strokeWidth=3;" parent="1" target="jNckEClQxKYpTligdhL6-34" edge="1">
          <mxGeometry width="50" height="50" relative="1" as="geometry">
            <mxPoint x="428" y="114" as="sourcePoint" />
            <mxPoint x="345" y="43" as="targetPoint" />
          </mxGeometry>
        </mxCell>
        <mxCell id="OzcmG1svSVnzf-XZp5vA-60" value="" style="endArrow=none;html=1;rounded=0;strokeColor=#FF0000;strokeWidth=3;" parent="1" edge="1">
          <mxGeometry width="50" height="50" relative="1" as="geometry">
            <mxPoint x="406" y="129.5" as="sourcePoint" />
            <mxPoint x="386" y="96.5" as="targetPoint" />
          </mxGeometry>
        </mxCell>
        <mxCell id="OzcmG1svSVnzf-XZp5vA-55" value="" style="endArrow=none;html=1;rounded=0;strokeColor=#FF0000;strokeWidth=3;" parent="1" target="jNckEClQxKYpTligdhL6-38" edge="1">
          <mxGeometry width="50" height="50" relative="1" as="geometry">
            <mxPoint x="570" y="140" as="sourcePoint" />
            <mxPoint x="520" y="165" as="targetPoint" />
          </mxGeometry>
        </mxCell>
        <mxCell id="OzcmG1svSVnzf-XZp5vA-56" value="" style="endArrow=none;html=1;rounded=0;strokeColor=#FF0000;strokeWidth=3;" parent="1" target="jNckEClQxKYpTligdhL6-38" edge="1">
          <mxGeometry width="50" height="50" relative="1" as="geometry">
            <mxPoint x="590" y="150" as="sourcePoint" />
            <mxPoint x="530" y="175" as="targetPoint" />
          </mxGeometry>
        </mxCell>
        <mxCell id="OzcmG1svSVnzf-XZp5vA-57" value="" style="endArrow=none;html=1;rounded=0;strokeColor=#FF0000;strokeWidth=3;" parent="1" target="jNckEClQxKYpTligdhL6-38" edge="1">
          <mxGeometry width="50" height="50" relative="1" as="geometry">
            <mxPoint x="600" y="176" as="sourcePoint" />
            <mxPoint x="540" y="185" as="targetPoint" />
          </mxGeometry>
        </mxCell>
        <mxCell id="OzcmG1svSVnzf-XZp5vA-52" value="" style="endArrow=none;html=1;rounded=0;strokeColor=#FF0000;strokeWidth=3;" parent="1" target="jNckEClQxKYpTligdhL6-40" edge="1">
          <mxGeometry width="50" height="50" relative="1" as="geometry">
            <mxPoint x="440" y="280" as="sourcePoint" />
            <mxPoint x="480" y="334" as="targetPoint" />
          </mxGeometry>
        </mxCell>
        <mxCell id="OzcmG1svSVnzf-XZp5vA-53" value="" style="endArrow=none;html=1;rounded=0;strokeColor=#FF0000;strokeWidth=3;exitX=0.928;exitY=0.996;exitDx=0;exitDy=0;exitPerimeter=0;" parent="1" source="jNckEClQxKYpTligdhL6-3" target="jNckEClQxKYpTligdhL6-40" edge="1">
          <mxGeometry width="50" height="50" relative="1" as="geometry">
            <mxPoint x="440" y="394" as="sourcePoint" />
            <mxPoint x="490" y="344" as="targetPoint" />
          </mxGeometry>
        </mxCell>
        <mxCell id="OzcmG1svSVnzf-XZp5vA-54" value="" style="endArrow=none;html=1;rounded=0;strokeColor=#FF0000;strokeWidth=3;" parent="1" target="jNckEClQxKYpTligdhL6-40" edge="1">
          <mxGeometry width="50" height="50" relative="1" as="geometry">
            <mxPoint x="451" y="260" as="sourcePoint" />
            <mxPoint x="500" y="354" as="targetPoint" />
          </mxGeometry>
        </mxCell>
        <mxCell id="OzcmG1svSVnzf-XZp5vA-49" value="" style="endArrow=none;html=1;rounded=0;strokeColor=#FF0000;strokeWidth=3;" parent="1" source="jNckEClQxKYpTligdhL6-44" edge="1">
          <mxGeometry width="50" height="50" relative="1" as="geometry">
            <mxPoint x="255" y="230" as="sourcePoint" />
            <mxPoint x="350" y="290" as="targetPoint" />
          </mxGeometry>
        </mxCell>
        <mxCell id="OzcmG1svSVnzf-XZp5vA-50" value="" style="endArrow=none;html=1;rounded=0;strokeColor=#FF0000;strokeWidth=3;" parent="1" source="jNckEClQxKYpTligdhL6-44" edge="1">
          <mxGeometry width="50" height="50" relative="1" as="geometry">
            <mxPoint x="265" y="240" as="sourcePoint" />
            <mxPoint x="360" y="270" as="targetPoint" />
          </mxGeometry>
        </mxCell>
        <mxCell id="OzcmG1svSVnzf-XZp5vA-51" value="" style="endArrow=none;html=1;rounded=0;strokeColor=#FF0000;strokeWidth=3;" parent="1" source="jNckEClQxKYpTligdhL6-44" edge="1">
          <mxGeometry width="50" height="50" relative="1" as="geometry">
            <mxPoint x="275" y="250" as="sourcePoint" />
            <mxPoint x="350" y="250" as="targetPoint" />
          </mxGeometry>
        </mxCell>
        <mxCell id="OzcmG1svSVnzf-XZp5vA-47" value="" style="endArrow=none;html=1;rounded=0;strokeColor=#FF0000;strokeWidth=3;" parent="1" source="jNckEClQxKYpTligdhL6-32" edge="1">
          <mxGeometry width="50" height="50" relative="1" as="geometry">
            <mxPoint x="220" y="130" as="sourcePoint" />
            <mxPoint x="190" y="90" as="targetPoint" />
          </mxGeometry>
        </mxCell>
        <mxCell id="OzcmG1svSVnzf-XZp5vA-48" value="" style="endArrow=none;html=1;rounded=0;strokeColor=#FF0000;strokeWidth=3;" parent="1" source="jNckEClQxKYpTligdhL6-32" edge="1">
          <mxGeometry width="50" height="50" relative="1" as="geometry">
            <mxPoint x="263" y="240" as="sourcePoint" />
            <mxPoint x="182" y="114" as="targetPoint" />
          </mxGeometry>
        </mxCell>
        <mxCell id="OzcmG1svSVnzf-XZp5vA-46" value="" style="endArrow=none;html=1;rounded=0;strokeColor=#FF0000;strokeWidth=3;" parent="1" source="jNckEClQxKYpTligdhL6-32" edge="1">
          <mxGeometry width="50" height="50" relative="1" as="geometry">
            <mxPoint x="220" y="130" as="sourcePoint" />
            <mxPoint x="210" y="80" as="targetPoint" />
          </mxGeometry>
        </mxCell>
        <mxCell id="jNckEClQxKYpTligdhL6-2" value="" style="rounded=0;whiteSpace=wrap;html=1;fillColor=#4D4D4D;" parent="1" vertex="1">
          <mxGeometry x="40" y="40" width="130" height="130" as="geometry" />
        </mxCell>
        <mxCell id="OzcmG1svSVnzf-XZp5vA-40" value="" style="endArrow=none;html=1;rounded=0;strokeColor=#FF0000;strokeWidth=3;" parent="1" source="jNckEClQxKYpTligdhL6-30" edge="1">
          <mxGeometry width="50" height="50" relative="1" as="geometry">
            <mxPoint x="174" y="215" as="sourcePoint" />
            <mxPoint x="152" y="179" as="targetPoint" />
          </mxGeometry>
        </mxCell>
        <mxCell id="OzcmG1svSVnzf-XZp5vA-41" value="" style="endArrow=none;html=1;rounded=0;strokeColor=#FF0000;strokeWidth=3;" parent="1" edge="1">
          <mxGeometry width="50" height="50" relative="1" as="geometry">
            <mxPoint x="110" y="192" as="sourcePoint" />
            <mxPoint x="136" y="162" as="targetPoint" />
          </mxGeometry>
        </mxCell>
        <mxCell id="OzcmG1svSVnzf-XZp5vA-42" value="" style="endArrow=none;html=1;rounded=0;strokeColor=#FF0000;strokeWidth=3;" parent="1" edge="1">
          <mxGeometry width="50" height="50" relative="1" as="geometry">
            <mxPoint x="104" y="196" as="sourcePoint" />
            <mxPoint x="115" y="158" as="targetPoint" />
          </mxGeometry>
        </mxCell>
        <mxCell id="OzcmG1svSVnzf-XZp5vA-44" value="" style="endArrow=none;html=1;rounded=0;strokeColor=#FF0000;strokeWidth=3;" parent="1" source="jNckEClQxKYpTligdhL6-42" edge="1">
          <mxGeometry width="50" height="50" relative="1" as="geometry">
            <mxPoint x="330" y="350" as="sourcePoint" />
            <mxPoint x="250" y="294" as="targetPoint" />
          </mxGeometry>
        </mxCell>
        <mxCell id="OzcmG1svSVnzf-XZp5vA-45" value="" style="endArrow=none;html=1;rounded=0;strokeColor=#FF0000;strokeWidth=3;" parent="1" source="jNckEClQxKYpTligdhL6-42" edge="1">
          <mxGeometry width="50" height="50" relative="1" as="geometry">
            <mxPoint x="333" y="440" as="sourcePoint" />
            <mxPoint x="245" y="313" as="targetPoint" />
          </mxGeometry>
        </mxCell>
        <mxCell id="OzcmG1svSVnzf-XZp5vA-43" value="" style="endArrow=none;html=1;rounded=0;strokeColor=#FF0000;strokeWidth=3;" parent="1" target="jNckEClQxKYpTligdhL6-42" edge="1">
          <mxGeometry width="50" height="50" relative="1" as="geometry">
            <mxPoint x="270" y="290" as="sourcePoint" />
            <mxPoint x="363" y="370" as="targetPoint" />
          </mxGeometry>
        </mxCell>
        <mxCell id="OzcmG1svSVnzf-XZp5vA-35" value="" style="endArrow=none;html=1;rounded=0;strokeColor=#FF0000;strokeWidth=3;" parent="1" target="jNckEClQxKYpTligdhL6-48" edge="1">
          <mxGeometry width="50" height="50" relative="1" as="geometry">
            <mxPoint x="110" y="280" as="sourcePoint" />
            <mxPoint x="114" y="354" as="targetPoint" />
          </mxGeometry>
        </mxCell>
        <mxCell id="OzcmG1svSVnzf-XZp5vA-36" value="" style="endArrow=none;html=1;rounded=0;strokeColor=#FF0000;strokeWidth=3;" parent="1" source="jNckEClQxKYpTligdhL6-46" edge="1">
          <mxGeometry width="50" height="50" relative="1" as="geometry">
            <mxPoint x="180" y="380" as="sourcePoint" />
            <mxPoint x="227" y="380" as="targetPoint" />
          </mxGeometry>
        </mxCell>
        <mxCell id="OzcmG1svSVnzf-XZp5vA-37" value="" style="endArrow=none;html=1;rounded=0;strokeColor=#FF0000;strokeWidth=3;" parent="1" target="jNckEClQxKYpTligdhL6-46" edge="1">
          <mxGeometry width="50" height="50" relative="1" as="geometry">
            <mxPoint x="230" y="360" as="sourcePoint" />
            <mxPoint x="134" y="374" as="targetPoint" />
          </mxGeometry>
        </mxCell>
        <mxCell id="OzcmG1svSVnzf-XZp5vA-38" value="" style="endArrow=none;html=1;rounded=0;strokeColor=#FF0000;strokeWidth=3;" parent="1" target="jNckEClQxKYpTligdhL6-46" edge="1">
          <mxGeometry width="50" height="50" relative="1" as="geometry">
            <mxPoint x="213" y="389" as="sourcePoint" />
            <mxPoint x="144" y="384" as="targetPoint" />
          </mxGeometry>
        </mxCell>
        <mxCell id="OzcmG1svSVnzf-XZp5vA-34" value="" style="endArrow=none;html=1;rounded=0;strokeColor=#FF0000;strokeWidth=3;" parent="1" source="jNckEClQxKYpTligdhL6-48" edge="1">
          <mxGeometry width="50" height="50" relative="1" as="geometry">
            <mxPoint x="230" y="300" as="sourcePoint" />
            <mxPoint x="130" y="290" as="targetPoint" />
          </mxGeometry>
        </mxCell>
        <mxCell id="OzcmG1svSVnzf-XZp5vA-33" value="" style="endArrow=none;html=1;rounded=0;strokeColor=#FF0000;strokeWidth=3;" parent="1" source="jNckEClQxKYpTligdhL6-48" edge="1">
          <mxGeometry width="50" height="50" relative="1" as="geometry">
            <mxPoint x="240" y="200" as="sourcePoint" />
            <mxPoint x="140" y="310" as="targetPoint" />
          </mxGeometry>
        </mxCell>
        <mxCell id="jNckEClQxKYpTligdhL6-25" value="" style="rounded=0;whiteSpace=wrap;html=1;fillColor=none;strokeWidth=2;" parent="1" vertex="1">
          <mxGeometry x="40" y="40" width="540" height="360" as="geometry" />
        </mxCell>
        <mxCell id="jNckEClQxKYpTligdhL6-30" value="" style="ellipse;whiteSpace=wrap;html=1;aspect=fixed;fillColor=#157302;strokeColor=#3399FF;direction=north;" parent="1" vertex="1">
          <mxGeometry x="94" y="190" width="20" height="20" as="geometry" />
        </mxCell>
        <mxCell id="jNckEClQxKYpTligdhL6-31" value="" style="endArrow=classic;html=1;rounded=0;strokeWidth=2;strokeColor=#3399FF;" parent="1" edge="1">
          <mxGeometry width="50" height="50" relative="1" as="geometry">
            <mxPoint x="104" y="200" as="sourcePoint" />
            <mxPoint x="121" y="180" as="targetPoint" />
          </mxGeometry>
        </mxCell>
        <mxCell id="jNckEClQxKYpTligdhL6-32" value="" style="ellipse;whiteSpace=wrap;html=1;aspect=fixed;fillColor=#88FF63;strokeColor=#3399FF;" parent="1" vertex="1">
          <mxGeometry x="215" y="117" width="20" height="20" as="geometry" />
        </mxCell>
        <mxCell id="jNckEClQxKYpTligdhL6-33" value="" style="endArrow=classic;html=1;rounded=0;strokeWidth=2;strokeColor=#3399FF;" parent="1" edge="1">
          <mxGeometry width="50" height="50" relative="1" as="geometry">
            <mxPoint x="225" y="127" as="sourcePoint" />
            <mxPoint x="210" y="110" as="targetPoint" />
          </mxGeometry>
        </mxCell>
        <mxCell id="jNckEClQxKYpTligdhL6-34" value="" style="ellipse;whiteSpace=wrap;html=1;aspect=fixed;fillColor=#1C9903;strokeColor=#3399FF;" parent="1" vertex="1">
          <mxGeometry x="372" y="79" width="20" height="20" as="geometry" />
        </mxCell>
        <mxCell id="jNckEClQxKYpTligdhL6-35" value="" style="endArrow=classic;html=1;rounded=0;strokeWidth=2;strokeColor=#3399FF;" parent="1" edge="1">
          <mxGeometry width="50" height="50" relative="1" as="geometry">
            <mxPoint x="382" y="89" as="sourcePoint" />
            <mxPoint x="402" y="100" as="targetPoint" />
          </mxGeometry>
        </mxCell>
        <mxCell id="jNckEClQxKYpTligdhL6-36" value="" style="ellipse;whiteSpace=wrap;html=1;aspect=fixed;fillColor=#126102;strokeColor=#3399FF;" parent="1" vertex="1">
          <mxGeometry x="465" y="103" width="20" height="20" as="geometry" />
        </mxCell>
        <mxCell id="jNckEClQxKYpTligdhL6-37" value="" style="endArrow=classic;html=1;rounded=0;strokeWidth=2;strokeColor=#3399FF;" parent="1" edge="1">
          <mxGeometry width="50" height="50" relative="1" as="geometry">
            <mxPoint x="475" y="113" as="sourcePoint" />
            <mxPoint x="450" y="130" as="targetPoint" />
          </mxGeometry>
        </mxCell>
        <mxCell id="jNckEClQxKYpTligdhL6-38" value="" style="ellipse;whiteSpace=wrap;html=1;aspect=fixed;fillColor=#157302;strokeColor=#3399FF;" parent="1" vertex="1">
          <mxGeometry x="540" y="176" width="20" height="20" as="geometry" />
        </mxCell>
        <mxCell id="jNckEClQxKYpTligdhL6-39" value="" style="endArrow=classic;html=1;rounded=0;strokeWidth=2;strokeColor=#3399FF;" parent="1" edge="1">
          <mxGeometry width="50" height="50" relative="1" as="geometry">
            <mxPoint x="550" y="186" as="sourcePoint" />
            <mxPoint x="570" y="170" as="targetPoint" />
          </mxGeometry>
        </mxCell>
        <mxCell id="jNckEClQxKYpTligdhL6-40" value="" style="ellipse;whiteSpace=wrap;html=1;aspect=fixed;fillColor=#157302;strokeColor=#3399FF;" parent="1" vertex="1">
          <mxGeometry x="476" y="295" width="20" height="20" as="geometry" />
        </mxCell>
        <mxCell id="jNckEClQxKYpTligdhL6-41" value="" style="endArrow=classic;html=1;rounded=0;strokeWidth=2;strokeColor=#3399FF;" parent="1" edge="1">
          <mxGeometry width="50" height="50" relative="1" as="geometry">
            <mxPoint x="486" y="305" as="sourcePoint" />
            <mxPoint x="460" y="290" as="targetPoint" />
          </mxGeometry>
        </mxCell>
        <mxCell id="jNckEClQxKYpTligdhL6-42" value="" style="ellipse;whiteSpace=wrap;html=1;aspect=fixed;fillColor=#E1F5E0;strokeColor=#82b366;" parent="1" vertex="1">
          <mxGeometry x="280" y="317" width="20" height="20" as="geometry" />
        </mxCell>
        <mxCell id="jNckEClQxKYpTligdhL6-43" value="" style="endArrow=classic;html=1;rounded=0;strokeWidth=2;strokeColor=#3399FF;" parent="1" edge="1">
          <mxGeometry width="50" height="50" relative="1" as="geometry">
            <mxPoint x="290" y="327" as="sourcePoint" />
            <mxPoint x="270" y="310" as="targetPoint" />
          </mxGeometry>
        </mxCell>
        <mxCell id="jNckEClQxKYpTligdhL6-44" value="" style="ellipse;whiteSpace=wrap;html=1;aspect=fixed;fillColor=#00A600;strokeColor=#3399FF;" parent="1" vertex="1">
          <mxGeometry x="293" y="260" width="20" height="20" as="geometry" />
        </mxCell>
        <mxCell id="jNckEClQxKYpTligdhL6-45" value="" style="endArrow=classic;html=1;rounded=0;strokeWidth=2;strokeColor=#3399FF;" parent="1" edge="1">
          <mxGeometry width="50" height="50" relative="1" as="geometry">
            <mxPoint x="303" y="270" as="sourcePoint" />
            <mxPoint x="333" y="270" as="targetPoint" />
          </mxGeometry>
        </mxCell>
        <mxCell id="jNckEClQxKYpTligdhL6-47" value="" style="endArrow=classic;html=1;rounded=0;strokeWidth=2;strokeColor=#3399FF;" parent="1" edge="1">
          <mxGeometry width="50" height="50" relative="1" as="geometry">
            <mxPoint x="184" y="344" as="sourcePoint" />
            <mxPoint x="211" y="366" as="targetPoint" />
          </mxGeometry>
        </mxCell>
        <mxCell id="jNckEClQxKYpTligdhL6-48" value="" style="ellipse;whiteSpace=wrap;html=1;aspect=fixed;fillColor=#d5e8d4;strokeColor=#82b366;" parent="1" vertex="1">
          <mxGeometry x="80" y="318" width="20" height="20" as="geometry" />
        </mxCell>
        <mxCell id="jNckEClQxKYpTligdhL6-49" value="" style="endArrow=classic;html=1;rounded=0;strokeWidth=2;strokeColor=#3399FF;" parent="1" edge="1">
          <mxGeometry width="50" height="50" relative="1" as="geometry">
            <mxPoint x="90" y="328" as="sourcePoint" />
            <mxPoint x="110" y="308" as="targetPoint" />
          </mxGeometry>
        </mxCell>
        <mxCell id="OzcmG1svSVnzf-XZp5vA-2" value="" style="endArrow=none;html=1;rounded=0;strokeColor=#000099;entryX=0.042;entryY=0.828;entryDx=0;entryDy=0;entryPerimeter=0;" parent="1" source="jNckEClQxKYpTligdhL6-44" target="jNckEClQxKYpTligdhL6-3" edge="1">
          <mxGeometry width="50" height="50" relative="1" as="geometry">
            <mxPoint x="230" y="250" as="sourcePoint" />
            <mxPoint x="280" y="200" as="targetPoint" />
          </mxGeometry>
        </mxCell>
        <mxCell id="OzcmG1svSVnzf-XZp5vA-3" value="" style="endArrow=none;html=1;rounded=0;entryX=-0.025;entryY=0.639;entryDx=0;entryDy=0;entryPerimeter=0;strokeColor=#000099;" parent="1" source="jNckEClQxKYpTligdhL6-44" target="jNckEClQxKYpTligdhL6-3" edge="1">
          <mxGeometry width="50" height="50" relative="1" as="geometry">
            <mxPoint x="230" y="250" as="sourcePoint" />
            <mxPoint x="280" y="200" as="targetPoint" />
          </mxGeometry>
        </mxCell>
        <mxCell id="OzcmG1svSVnzf-XZp5vA-4" value="" style="endArrow=none;html=1;rounded=0;entryX=0;entryY=1;entryDx=0;entryDy=0;strokeColor=#000099;" parent="1" source="jNckEClQxKYpTligdhL6-44" target="jNckEClQxKYpTligdhL6-3" edge="1">
          <mxGeometry width="50" height="50" relative="1" as="geometry">
            <mxPoint x="230" y="250" as="sourcePoint" />
            <mxPoint x="280" y="200" as="targetPoint" />
          </mxGeometry>
        </mxCell>
        <mxCell id="OzcmG1svSVnzf-XZp5vA-5" value="" style="endArrow=none;html=1;rounded=0;entryX=1;entryY=0;entryDx=0;entryDy=0;strokeColor=#000099;" parent="1" source="jNckEClQxKYpTligdhL6-34" target="jNckEClQxKYpTligdhL6-3" edge="1">
          <mxGeometry width="50" height="50" relative="1" as="geometry">
            <mxPoint x="230" y="250" as="sourcePoint" />
            <mxPoint x="280" y="200" as="targetPoint" />
          </mxGeometry>
        </mxCell>
        <mxCell id="OzcmG1svSVnzf-XZp5vA-6" value="" style="endArrow=none;html=1;rounded=0;strokeColor=#000099;" parent="1" target="jNckEClQxKYpTligdhL6-34" edge="1">
          <mxGeometry width="50" height="50" relative="1" as="geometry">
            <mxPoint x="480" y="80" as="sourcePoint" />
            <mxPoint x="280" y="200" as="targetPoint" />
          </mxGeometry>
        </mxCell>
        <mxCell id="OzcmG1svSVnzf-XZp5vA-7" value="" style="endArrow=none;html=1;rounded=0;exitX=0.333;exitY=0;exitDx=0;exitDy=0;exitPerimeter=0;strokeColor=#000099;" parent="1" source="jNckEClQxKYpTligdhL6-3" target="jNckEClQxKYpTligdhL6-34" edge="1">
          <mxGeometry width="50" height="50" relative="1" as="geometry">
            <mxPoint x="230" y="250" as="sourcePoint" />
            <mxPoint x="280" y="200" as="targetPoint" />
          </mxGeometry>
        </mxCell>
        <mxCell id="OzcmG1svSVnzf-XZp5vA-8" value="" style="endArrow=none;html=1;rounded=0;exitX=1.008;exitY=0.215;exitDx=0;exitDy=0;exitPerimeter=0;strokeColor=#000099;" parent="1" source="jNckEClQxKYpTligdhL6-2" target="jNckEClQxKYpTligdhL6-32" edge="1">
          <mxGeometry width="50" height="50" relative="1" as="geometry">
            <mxPoint x="230" y="250" as="sourcePoint" />
            <mxPoint x="280" y="200" as="targetPoint" />
          </mxGeometry>
        </mxCell>
        <mxCell id="OzcmG1svSVnzf-XZp5vA-9" value="" style="endArrow=none;html=1;rounded=0;strokeColor=#000099;" parent="1" source="jNckEClQxKYpTligdhL6-32" edge="1">
          <mxGeometry width="50" height="50" relative="1" as="geometry">
            <mxPoint x="230" y="250" as="sourcePoint" />
            <mxPoint x="200" y="40" as="targetPoint" />
          </mxGeometry>
        </mxCell>
        <mxCell id="OzcmG1svSVnzf-XZp5vA-10" value="" style="endArrow=none;html=1;rounded=0;entryX=1.008;entryY=0.546;entryDx=0;entryDy=0;entryPerimeter=0;strokeColor=#000099;" parent="1" source="jNckEClQxKYpTligdhL6-32" target="jNckEClQxKYpTligdhL6-2" edge="1">
          <mxGeometry width="50" height="50" relative="1" as="geometry">
            <mxPoint x="220" y="130" as="sourcePoint" />
            <mxPoint x="280" y="200" as="targetPoint" />
          </mxGeometry>
        </mxCell>
        <mxCell id="OzcmG1svSVnzf-XZp5vA-11" value="" style="endArrow=none;html=1;rounded=0;entryX=0.962;entryY=1.023;entryDx=0;entryDy=0;entryPerimeter=0;strokeColor=#000099;" parent="1" source="jNckEClQxKYpTligdhL6-30" target="jNckEClQxKYpTligdhL6-2" edge="1">
          <mxGeometry width="50" height="50" relative="1" as="geometry">
            <mxPoint x="230" y="250" as="sourcePoint" />
            <mxPoint x="280" y="200" as="targetPoint" />
          </mxGeometry>
        </mxCell>
        <mxCell id="OzcmG1svSVnzf-XZp5vA-12" value="" style="endArrow=none;html=1;rounded=0;entryX=0.685;entryY=1.012;entryDx=0;entryDy=0;entryPerimeter=0;strokeColor=#000099;" parent="1" source="jNckEClQxKYpTligdhL6-30" target="jNckEClQxKYpTligdhL6-2" edge="1">
          <mxGeometry width="50" height="50" relative="1" as="geometry">
            <mxPoint x="110" y="200" as="sourcePoint" />
            <mxPoint x="280" y="200" as="targetPoint" />
          </mxGeometry>
        </mxCell>
        <mxCell id="OzcmG1svSVnzf-XZp5vA-13" value="" style="endArrow=none;html=1;rounded=0;entryX=0.546;entryY=1.023;entryDx=0;entryDy=0;entryPerimeter=0;strokeColor=#000099;" parent="1" source="jNckEClQxKYpTligdhL6-30" target="jNckEClQxKYpTligdhL6-2" edge="1">
          <mxGeometry width="50" height="50" relative="1" as="geometry">
            <mxPoint x="230" y="250" as="sourcePoint" />
            <mxPoint x="280" y="200" as="targetPoint" />
          </mxGeometry>
        </mxCell>
        <mxCell id="OzcmG1svSVnzf-XZp5vA-14" value="" style="endArrow=none;html=1;rounded=0;strokeColor=#000099;" parent="1" source="jNckEClQxKYpTligdhL6-48" edge="1">
          <mxGeometry width="50" height="50" relative="1" as="geometry">
            <mxPoint x="230" y="250" as="sourcePoint" />
            <mxPoint x="190" y="290" as="targetPoint" />
          </mxGeometry>
        </mxCell>
        <mxCell id="OzcmG1svSVnzf-XZp5vA-15" value="" style="endArrow=none;html=1;rounded=0;strokeColor=#000099;" parent="1" source="jNckEClQxKYpTligdhL6-48" edge="1">
          <mxGeometry width="50" height="50" relative="1" as="geometry">
            <mxPoint x="230" y="250" as="sourcePoint" />
            <mxPoint x="170" y="250" as="targetPoint" />
          </mxGeometry>
        </mxCell>
        <mxCell id="OzcmG1svSVnzf-XZp5vA-16" value="" style="endArrow=none;html=1;rounded=0;strokeColor=#000099;" parent="1" source="jNckEClQxKYpTligdhL6-48" edge="1">
          <mxGeometry width="50" height="50" relative="1" as="geometry">
            <mxPoint x="230" y="250" as="sourcePoint" />
            <mxPoint x="130" y="240" as="targetPoint" />
          </mxGeometry>
        </mxCell>
        <mxCell id="OzcmG1svSVnzf-XZp5vA-17" value="" style="endArrow=none;html=1;rounded=0;entryX=1.033;entryY=0.894;entryDx=0;entryDy=0;entryPerimeter=0;strokeColor=#000099;" parent="1" source="jNckEClQxKYpTligdhL6-40" target="jNckEClQxKYpTligdhL6-3" edge="1">
          <mxGeometry width="50" height="50" relative="1" as="geometry">
            <mxPoint x="230" y="250" as="sourcePoint" />
            <mxPoint x="280" y="200" as="targetPoint" />
          </mxGeometry>
        </mxCell>
        <mxCell id="OzcmG1svSVnzf-XZp5vA-18" value="" style="endArrow=none;html=1;rounded=0;entryX=1;entryY=1;entryDx=0;entryDy=0;strokeColor=#000099;" parent="1" source="jNckEClQxKYpTligdhL6-40" target="jNckEClQxKYpTligdhL6-3" edge="1">
          <mxGeometry width="50" height="50" relative="1" as="geometry">
            <mxPoint x="230" y="250" as="sourcePoint" />
            <mxPoint x="280" y="200" as="targetPoint" />
          </mxGeometry>
        </mxCell>
        <mxCell id="OzcmG1svSVnzf-XZp5vA-19" value="" style="endArrow=none;html=1;rounded=0;exitX=1.025;exitY=0.706;exitDx=0;exitDy=0;exitPerimeter=0;strokeColor=#000099;" parent="1" source="jNckEClQxKYpTligdhL6-3" target="jNckEClQxKYpTligdhL6-40" edge="1">
          <mxGeometry width="50" height="50" relative="1" as="geometry">
            <mxPoint x="230" y="250" as="sourcePoint" />
            <mxPoint x="280" y="200" as="targetPoint" />
          </mxGeometry>
        </mxCell>
        <mxCell id="OzcmG1svSVnzf-XZp5vA-20" value="" style="endArrow=none;html=1;rounded=0;exitX=1.017;exitY=0.089;exitDx=0;exitDy=0;exitPerimeter=0;strokeColor=#000099;" parent="1" source="jNckEClQxKYpTligdhL6-3" target="jNckEClQxKYpTligdhL6-36" edge="1">
          <mxGeometry width="50" height="50" relative="1" as="geometry">
            <mxPoint x="230" y="250" as="sourcePoint" />
            <mxPoint x="280" y="200" as="targetPoint" />
          </mxGeometry>
        </mxCell>
        <mxCell id="OzcmG1svSVnzf-XZp5vA-21" value="" style="endArrow=none;html=1;rounded=0;strokeColor=#000099;" parent="1" target="jNckEClQxKYpTligdhL6-36" edge="1">
          <mxGeometry width="50" height="50" relative="1" as="geometry">
            <mxPoint x="440" y="120" as="sourcePoint" />
            <mxPoint x="280" y="200" as="targetPoint" />
          </mxGeometry>
        </mxCell>
        <mxCell id="OzcmG1svSVnzf-XZp5vA-22" value="" style="endArrow=none;html=1;rounded=0;exitX=1.067;exitY=0.239;exitDx=0;exitDy=0;exitPerimeter=0;strokeColor=#000099;" parent="1" source="jNckEClQxKYpTligdhL6-3" target="jNckEClQxKYpTligdhL6-36" edge="1">
          <mxGeometry width="50" height="50" relative="1" as="geometry">
            <mxPoint x="230" y="250" as="sourcePoint" />
            <mxPoint x="280" y="200" as="targetPoint" />
          </mxGeometry>
        </mxCell>
        <mxCell id="OzcmG1svSVnzf-XZp5vA-23" value="" style="endArrow=none;html=1;rounded=0;strokeColor=#000099;" parent="1" source="jNckEClQxKYpTligdhL6-42" edge="1">
          <mxGeometry width="50" height="50" relative="1" as="geometry">
            <mxPoint x="230" y="250" as="sourcePoint" />
            <mxPoint x="210" y="260" as="targetPoint" />
          </mxGeometry>
        </mxCell>
        <mxCell id="OzcmG1svSVnzf-XZp5vA-24" value="" style="endArrow=none;html=1;rounded=0;strokeColor=#000099;" parent="1" source="jNckEClQxKYpTligdhL6-42" edge="1">
          <mxGeometry width="50" height="50" relative="1" as="geometry">
            <mxPoint x="230" y="250" as="sourcePoint" />
            <mxPoint x="250" y="250" as="targetPoint" />
          </mxGeometry>
        </mxCell>
        <mxCell id="OzcmG1svSVnzf-XZp5vA-25" value="" style="endArrow=none;html=1;rounded=0;strokeColor=#000099;" parent="1" source="jNckEClQxKYpTligdhL6-42" edge="1">
          <mxGeometry width="50" height="50" relative="1" as="geometry">
            <mxPoint x="230" y="250" as="sourcePoint" />
            <mxPoint x="200" y="300" as="targetPoint" />
          </mxGeometry>
        </mxCell>
        <mxCell id="OzcmG1svSVnzf-XZp5vA-27" value="" style="endArrow=none;html=1;rounded=0;strokeColor=#000099;" parent="1" target="jNckEClQxKYpTligdhL6-38" edge="1">
          <mxGeometry width="50" height="50" relative="1" as="geometry">
            <mxPoint x="580" y="160" as="sourcePoint" />
            <mxPoint x="280" y="210" as="targetPoint" />
          </mxGeometry>
        </mxCell>
        <mxCell id="OzcmG1svSVnzf-XZp5vA-28" value="" style="endArrow=none;html=1;rounded=0;strokeColor=#000099;" parent="1" target="jNckEClQxKYpTligdhL6-38" edge="1">
          <mxGeometry width="50" height="50" relative="1" as="geometry">
            <mxPoint x="580" y="120" as="sourcePoint" />
            <mxPoint x="280" y="210" as="targetPoint" />
          </mxGeometry>
        </mxCell>
        <mxCell id="OzcmG1svSVnzf-XZp5vA-29" value="" style="endArrow=none;html=1;rounded=0;strokeColor=#000099;" parent="1" target="jNckEClQxKYpTligdhL6-38" edge="1">
          <mxGeometry width="50" height="50" relative="1" as="geometry">
            <mxPoint x="580" y="180" as="sourcePoint" />
            <mxPoint x="280" y="210" as="targetPoint" />
          </mxGeometry>
        </mxCell>
        <mxCell id="OzcmG1svSVnzf-XZp5vA-30" value="" style="endArrow=none;html=1;rounded=0;strokeColor=#000099;" parent="1" source="jNckEClQxKYpTligdhL6-46" edge="1">
          <mxGeometry width="50" height="50" relative="1" as="geometry">
            <mxPoint x="230" y="260" as="sourcePoint" />
            <mxPoint x="250" y="400" as="targetPoint" />
          </mxGeometry>
        </mxCell>
        <mxCell id="OzcmG1svSVnzf-XZp5vA-31" value="" style="endArrow=none;html=1;rounded=0;strokeColor=#000099;" parent="1" source="jNckEClQxKYpTligdhL6-46" edge="1">
          <mxGeometry width="50" height="50" relative="1" as="geometry">
            <mxPoint x="184" y="350" as="sourcePoint" />
            <mxPoint x="280" y="380" as="targetPoint" />
          </mxGeometry>
        </mxCell>
        <mxCell id="OzcmG1svSVnzf-XZp5vA-32" value="" style="endArrow=none;html=1;rounded=0;strokeColor=#000099;" parent="1" source="jNckEClQxKYpTligdhL6-46" edge="1">
          <mxGeometry width="50" height="50" relative="1" as="geometry">
            <mxPoint x="184" y="350" as="sourcePoint" />
            <mxPoint x="220" y="400" as="targetPoint" />
          </mxGeometry>
        </mxCell>
        <mxCell id="jNckEClQxKYpTligdhL6-46" value="" style="ellipse;whiteSpace=wrap;html=1;aspect=fixed;fillColor=#d5e8d4;strokeColor=#82b366;" parent="1" vertex="1">
          <mxGeometry x="174" y="334" width="20" height="20" as="geometry" />
        </mxCell>
        <mxCell id="W7a-D7XOTGkxL0DA8jX0-1" value="4" style="text;html=1;strokeColor=none;fillColor=none;align=center;verticalAlign=middle;whiteSpace=wrap;rounded=0;fontColor=#CC0000;fontSize=30;fontStyle=1" vertex="1" parent="1">
          <mxGeometry x="34" y="49" width="60" height="30" as="geometry" />
        </mxCell>
      </root>
    </mxGraphModel>
  </diagram>
</mxfile>
